<svg xmlns="http://www.w3.org/2000/svg" viewBox="0 0 49.56 48.04"><g data-name="Layer 2"><g data-name="Layer 1"><path d="M43.71 11.48A23.07 23.07 0 1 0 12.9 44.67a42.24 42.24 0 0 1 1-5.54 28.07 28.07 0 0 1 9.16-15.21c5.71-4.73 12.76-6.4 18.05-6.93a42.29 42.29 0 0 1 5.5-.22 23 23 0 0 0-2.9-5.29Z" style="fill:#f5b952"/><path d="M43.71 11.48A23.07 23.07 0 1 0 12.9 44.67a42.24 42.24 0 0 1 1-5.54 28.07 28.07 0 0 1 9.16-15.21c5.71-4.73 12.76-6.4 18.05-6.93a42.29 42.29 0 0 1 5.5-.22 23 23 0 0 0-2.9-5.29Z" style="fill:none;stroke:#000;stroke-miterlimit:10;stroke-width:4px"/></g></g></svg>