<svg xmlns="http://www.w3.org/2000/svg" viewBox="0 0 117.22 91.65"><defs><style>.cls-1{fill:#cae3f6}.cls-4{fill:none;stroke-miterlimit:10;stroke:#000;stroke-width:4px}</style></defs><g id="Layer_2" data-name="Layer 2"><g id="Layer_1-2" data-name="Layer 1"><path class="cls-1" d="M101.55 75.11c-.21-.51-.44-1-.67-1.55V72l.62-1.43a.81.81 0 0 0-.53-1.26c-.47-.19-.94-.38-1.45-.57L98.4 67.6l-.64-1.6a.79.79 0 0 0-1.09-.44c-.28.11-.55.24-.83.36l-.72.32h-1.58c-.42-.18-.82-.33-1.2-.52-.87-.44-1.31-.23-1.6.65-.13.41-.3.8-.47 1.23l-1.12 1.12-1.54.61a.79.79 0 0 0-.47 1.14c.18.43.38.87.57 1.3 0 .07.05.14.08.22v1.58c-.24.54-.47 1-.68 1.57a.77.77 0 0 0 .45 1.08l.85.33.78.31 1.06 1.08.58 1.45c.26.66.64.82 1.31.53l1.4-.61h1.56l.8.34.74.32a.79.79 0 0 0 1.15-.48l.51-1.33.1-.23 1.09-1.09 1.3-.51.31-.13a.77.77 0 0 0 .45-1.09Z"/><path d="M18.58 30.42a19.63 19.63 0 0 1-1.65-11.06A24.25 24.25 0 0 1 23.29 7a33.66 33.66 0 0 1 2.84-2.74 16.28 16.28 0 0 0-4.08-1.45A16.57 16.57 0 0 0 6.2 30.05a16.23 16.23 0 0 0 5.51 4.05" style="fill:#f5b952"/><path d="M78.5 51.76a1.23 1.23 0 0 1 .77-.46 25.05 25.05 0 0 0 11.14-4.11c6.44 4.75 12 5.41 17.45 2.13 4.78-2.85 7.7-8.49 6.76-13.84-1.38-8-6.52-12-14.43-12.58-2.64-9.84-8.67-16.42-18.71-18.21-11.75-2.1-20.3 3.05-26 13.23" style="fill:#aac7d5"/><path class="cls-1" d="M65.05 31.57h-.35a24 24 0 0 0-47 .87h-.87a14 14 0 0 0-5.53 1.59 14.44 14.44 0 0 0-2.36 1.57 14.21 14.21 0 0 0-1.17 1.05A10.26 10.26 0 0 0 5.7 39.2a13.49 13.49 0 0 0-1.13 2.4C2 49.55 5.73 55.51 10 58.36s11.5 4 17.85-1.57a24 24 0 0 0 27 0 14.67 14.67 0 1 0 10.2-25.22Z"/><path class="cls-4" d="M18.58 30a19.63 19.63 0 0 1-1.65-11.06 24.21 24.21 0 0 1 6.36-12.38 32.14 32.14 0 0 1 2.84-2.74 16.28 16.28 0 0 0-4.08-1.45A16.57 16.57 0 0 0 6.2 29.6a16.23 16.23 0 0 0 5.51 4m67.22 17.71a1.29 1.29 0 0 1 .77-.47 24.84 24.84 0 0 0 11.13-4.1c6.44 4.75 12 5.41 17.45 2.13C113.06 46 116 40.38 115.05 35c-1.39-8-6.53-12-14.43-12.58C98 12.61 91.94 6 81.9 4.24c-11.74-2.1-20.29 3.05-26 13.23"/><path class="cls-4" d="M65.48 31.12h-.36a24 24 0 0 0-47 .87h-.87a14.06 14.06 0 0 0-5.52 1.6 14.44 14.44 0 0 0-2.36 1.57 14.06 14.06 0 0 0-1.17 1 9.89 9.89 0 0 0-2.06 2.5A13.24 13.24 0 0 0 5 41.14c-2.57 8 1.16 13.91 5.38 16.76 4.38 3 11.5 4 17.86-1.56a24 24 0 0 0 27-.05 14.67 14.67 0 1 0 10.24-25.17Z"/><path d="M67.72 68.96v6.27m-25.83-6.27v6.27m-25.82-6.27v6.27m37.7 5.61v6.27m-25.83-6.27v6.27" style="stroke-linecap:round;stroke:#000;stroke-width:4px;fill:none;stroke-miterlimit:10"/><path d="M101.55 75.23c-.21-.51-.44-1-.67-1.54v-1.61l.62-1.42a.82.82 0 0 0-.53-1.27l-1.45-.57-1.11-1.1c-.23-.56-.43-1.09-.64-1.6a.79.79 0 0 0-1.09-.45l-.83.37-.72.32h-1.59c-.42-.19-.82-.34-1.2-.53-.87-.44-1.31-.23-1.6.66-.13.4-.3.79-.47 1.22l-1.12 1.12-1.54.62a.78.78 0 0 0-.47 1.13c.18.44.38.87.57 1.31a1.77 1.77 0 0 1 .08.22v1.57c-.24.54-.47 1-.68 1.57a.77.77 0 0 0 .45 1.08c.28.12.56.22.85.33l.78.31 1.06 1.09.58 1.44c.26.67.64.82 1.31.53l1.4-.61h1.56l.8.35.74.31a.78.78 0 0 0 1.15-.48l.51-1.33c0-.05.05-.11.1-.22L99.51 77l1.3-.52.31-.12a.78.78 0 0 0 .43-1.13Z" style="stroke-width:2px;stroke:#000;fill:none;stroke-miterlimit:10"/><path style="stroke:#231f20;stroke-width:2px;fill:none;stroke-miterlimit:10" d="M94.3 55.65v35"/><path d="M94.3 54.99v35.66m-3.33-33.73 3.3 1.92 3.38-2.08m0 32.22-3.3-1.92-3.38 2.08m-9.28-28.92 25.22 25.22M80.7 63.93l3.7-.97.91-3.86m22.79 22.79-3.7.97-.91 3.86m3.6-26.52L81.87 85.42m21.51-26.2.97 3.69 3.86.91M85.42 86.61l-.97-3.7-3.86-.91m31.77-9.1H76.7m33.73-3.33-1.92 3.3 2.08 3.38m-32.22 0 1.92-3.3-2.08-3.38" style="stroke-width:2px;stroke:#231f20;stroke-linecap:round;fill:none;stroke-miterlimit:10"/></g></g></svg>