<svg xmlns="http://www.w3.org/2000/svg" viewBox="0 0 104.48 75.58"><defs><style>.cls-3{fill:none;stroke-miterlimit:10;stroke-width:3px;stroke:#231f20;stroke-linecap:round}</style></defs><g id="Layer_2" data-name="Layer 2"><g id="Layer_1-2" data-name="Layer 1"><path d="M52.09 42.69c-.44-1-.9-2-1.38-3.14v-3.26l1.29-2.9a1.67 1.67 0 0 0-1.06-2.59c-1-.37-1.93-.75-3-1.16l-2.27-2.23c-.45-1.15-.86-2.21-1.29-3.27a1.61 1.61 0 0 0-2.22-.9l-1.7.76-1.46.63h-3.2c-.85-.37-1.67-.68-2.45-1.07-1.77-.89-2.66-.47-3.24 1.34-.27.82-.63 1.62-1 2.5l-2.28 2.28-3.13 1.24a1.61 1.61 0 0 0-1 2.31l1.17 2.66a4.52 4.52 0 0 1 .16.45v3.2c-.48 1.1-.94 2.14-1.38 3.19a1.57 1.57 0 0 0 .92 2.2c.57.24 1.15.46 1.72.68l1.59.62 2.17 2.21 1.17 3c.54 1.35 1.31 1.67 2.66 1.07l2.85-1.24H39l1.64.69 1.5.65a1.6 1.6 0 0 0 2.34-1c.36-.9.7-1.81 1.06-2.71 0-.11.09-.22.2-.45l2.2-2.22 2.65-1.06c.21-.08.43-.15.64-.25a1.6 1.6 0 0 0 .86-2.23Z" style="fill:#cae3f6"/><path d="M95.9 27.83v-9.94a5.69 5.69 0 1 0-11.37.16v19.44a2.42 2.42 0 0 1-1.28 2.3 12.75 12.75 0 0 0 10.21 23 12.16 12.16 0 0 0 9.29-10.22c.91-5.41-1.15-9.74-5.68-12.83a2.39 2.39 0 0 1-1.21-2.25c.07-3.2.04-6.43.04-9.66Z" style="fill:#649f4e"/><path class="cls-3" d="M95.9 27.83v-9.94a5.69 5.69 0 1 0-11.37.16v19.44a2.42 2.42 0 0 1-1.28 2.3 12.75 12.75 0 0 0 10.21 23 12.16 12.16 0 0 0 9.29-10.22c.91-5.41-1.15-9.74-5.68-12.83a2.39 2.39 0 0 1-1.21-2.25c.07-3.2.04-6.43.04-9.66Z"/><path d="M52.09 42.69c-.44-1-.9-2-1.38-3.14v-3.26l1.29-2.9a1.67 1.67 0 0 0-1.06-2.59c-1-.37-1.93-.75-3-1.16l-2.27-2.23c-.45-1.15-.86-2.21-1.29-3.27a1.61 1.61 0 0 0-2.22-.9l-1.7.76-1.46.63h-3.2c-.85-.37-1.67-.68-2.45-1.07-1.77-.89-2.66-.47-3.24 1.34-.27.82-.63 1.62-1 2.5l-2.28 2.28-3.13 1.24a1.61 1.61 0 0 0-1 2.31l1.17 2.66a4.52 4.52 0 0 1 .16.45v3.2c-.48 1.1-.94 2.14-1.38 3.19a1.57 1.57 0 0 0 .92 2.2c.57.24 1.15.46 1.72.68l1.59.62 2.17 2.21 1.17 3c.54 1.35 1.31 1.67 2.66 1.07l2.85-1.24H39l1.64.69 1.5.65a1.6 1.6 0 0 0 2.34-1c.36-.9.7-1.81 1.06-2.71 0-.11.09-.22.2-.45l2.2-2.22 2.65-1.06c.21-.08.43-.15.64-.25a1.6 1.6 0 0 0 .86-2.23Z" style="stroke:#000;fill:none;stroke-miterlimit:10;stroke-width:3px"/><path style="stroke:#231f20;fill:none;stroke-miterlimit:10;stroke-width:3px" d="M37.32 2.84v71.24"/><path class="cls-3" d="M37.32 1.5v72.58M30.55 5.42l6.72 3.92 6.87-4.24m0 65.58-6.71-3.92L30.55 71M11.67 12.14l51.32 51.32M9.65 19.7l7.52-1.97 1.86-7.86M65.4 56.24l-7.51 1.98-1.86 7.85m7.33-53.96L12.04 63.43M55.8 10.1l1.97 7.51 7.86 1.86M19.26 65.85l-1.97-7.52-7.86-1.86m64.65-18.52H1.5m68.66-6.77-3.92 6.71 4.24 6.87m-65.58 0 3.92-6.71-4.24-6.87m85.36-11.74v30.25"/></g></g></svg>