<svg xmlns="http://www.w3.org/2000/svg" viewBox="0 0 117.22 88.49"><defs><style>.cls-1{fill:#cae3f6}.cls-4{fill:none;stroke:#000;stroke-miterlimit:10;stroke-width:4px}</style></defs><g id="Layer_2" data-name="Layer 2"><g id="Layer_1-2" data-name="Layer 1"><path class="cls-1" d="m48.84 74.56-3.64-1-.26-.08c.36-1.26.71-2.51 1.06-3.75s.65-2.31 1-3.47a1 1 0 0 0-.24-1 .86.86 0 0 0-1-.23 1.51 1.51 0 0 0-.57.43L39 73.37v.06l-1.43 1.8c-.26.33-.54.7-.83 1.06a1 1 0 0 0 .58 1.76l3.49 1c.22.06.29.14.27.37-.1 1-.18 2-.26 3s-.16 1.78-.21 2.67a1 1 0 0 0 .93 1 1.11 1.11 0 0 0 .94-.54c1.69-2.27 3.39-4.53 5.08-6.79l.09-.11 1.64-2.19.21-.29a1 1 0 0 0-.66-1.61Z"/><path d="M18.58 29.48a19.64 19.64 0 0 1-1.65-11.06 24.21 24.21 0 0 1 6.36-12.35 34 34 0 0 1 2.84-2.75 16.26 16.26 0 0 0-4.08-1.44A16.57 16.57 0 0 0 6.2 29.11a16.33 16.33 0 0 0 5.51 4" style="fill:#f5b952"/><path d="M78.5 51.75a1.23 1.23 0 0 1 .77-.46 24.94 24.94 0 0 0 11.14-4.11c6.44 4.75 12 5.41 17.45 2.13 4.78-2.85 7.7-8.49 6.76-13.84-1.38-8-6.52-12-14.43-12.58-2.64-9.84-8.67-16.41-18.71-18.21-11.75-2.1-20.3 3.05-26 13.23" style="fill:#aac7d5"/><path class="cls-1" d="M65.05 31.56h-.35a24 24 0 0 0-47 .87h-.87a14 14 0 0 0-5.53 1.59 14.44 14.44 0 0 0-2.36 1.57 14.21 14.21 0 0 0-1.18 1.11 10.26 10.26 0 0 0-2.06 2.49 13.49 13.49 0 0 0-1.13 2.4C2 49.54 5.73 55.5 10 58.35s11.5 4 17.85-1.57a24 24 0 0 0 27 0 14.67 14.67 0 1 0 10.2-25.22Z"/><path class="cls-4" d="M18.58 30a19.63 19.63 0 0 1-1.65-11.06 24.21 24.21 0 0 1 6.36-12.38 32.14 32.14 0 0 1 2.84-2.74 16.28 16.28 0 0 0-4.08-1.45A16.57 16.57 0 0 0 6.2 29.6a16.23 16.23 0 0 0 5.51 4m67.22 17.71a1.29 1.29 0 0 1 .77-.47 24.84 24.84 0 0 0 11.13-4.1c6.44 4.75 12 5.41 17.45 2.13C113.06 46 116 40.38 115.05 35c-1.39-8-6.53-12-14.43-12.58C98 12.61 91.94 6 81.9 4.24c-11.74-2.1-20.29 3.05-26 13.23"/><path class="cls-4" d="M65.48 31.12h-.36a24 24 0 0 0-47 .87h-.87a14.06 14.06 0 0 0-5.52 1.6 14.44 14.44 0 0 0-2.36 1.57 14.06 14.06 0 0 0-1.17 1 9.89 9.89 0 0 0-2.06 2.5A13.24 13.24 0 0 0 5 41.14c-2.57 8 1.16 13.91 5.38 16.76 4.38 3 11.5 4 17.86-1.56a24 24 0 0 0 27-.05 14.67 14.67 0 1 0 10.24-25.17Z"/><path d="M88.06 66.31v6.97m-25.83-6.97v6.97m11.88 6.24v6.97" style="stroke-linecap:round;fill:none;stroke:#000;stroke-miterlimit:10;stroke-width:4px"/><path d="m48.84 74.56-3.64-1-.26-.08c.36-1.26.71-2.51 1.06-3.75s.65-2.31 1-3.47a1 1 0 0 0-.24-1 .86.86 0 0 0-1-.23 1.51 1.51 0 0 0-.57.43L39 73.37v.06l-1.43 1.8c-.26.33-.54.7-.83 1.06a1 1 0 0 0 .58 1.76l3.49 1c.22.06.29.14.27.37-.1 1-.18 2-.26 3s-.16 1.78-.21 2.67a1 1 0 0 0 .93 1 1.11 1.11 0 0 0 .94-.54c1.69-2.27 3.39-4.53 5.08-6.79l.09-.11 1.64-2.19.21-.29a1 1 0 0 0-.66-1.61Z" style="stroke-width:3px;fill:none;stroke:#000;stroke-miterlimit:10"/></g></g></svg>