<svg xmlns="http://www.w3.org/2000/svg" viewBox="0 0 115.07 89.43"><defs><style>.cls-1{fill:#cae3f6}.cls-3{fill:none;stroke-miterlimit:10;stroke:#000;stroke-width:4px}</style></defs><g id="Layer_2" data-name="Layer 2"><g id="Layer_1-2" data-name="Layer 1"><path class="cls-1" d="M99.4 73c-.22-.51-.45-1-.68-1.55v-1.6c.22-.49.42-1 .62-1.43a.82.82 0 0 0-.52-1.27l-1.45-.57-1.13-1.08c-.22-.57-.42-1.09-.63-1.61a.78.78 0 0 0-1.09-.44c-.28.11-.56.24-.84.36l-.72.32h-1.57c-.42-.18-.83-.33-1.21-.53-.87-.43-1.31-.22-1.59.66-.13.41-.31.8-.48 1.23L87 66.61l-1.54.61a.79.79 0 0 0-.46 1.14l.57 1.3c0 .07 0 .14.08.22v1.58c-.24.54-.46 1.05-.68 1.57a.78.78 0 0 0 .46 1.08l.84.33.78.31 1.07 1.08c.2.51.39 1 .57 1.45a.84.84 0 0 0 1.31.53l1.4-.61H93l.8.34.74.32a.79.79 0 0 0 1.15-.48c.18-.45.35-.89.52-1.33 0-.06 0-.11.1-.23l1.08-1.09 1.3-.51.32-.13A.78.78 0 0 0 99.4 73Z"/><path d="M76.68 50a1.27 1.27 0 0 1 .78-.46 25 25 0 0 0 11.13-4.11c6.44 4.75 12 5.41 17.45 2.13 4.78-2.85 7.71-8.49 6.77-13.84-1.39-8-6.53-12-14.43-12.58C95.74 11.3 89.7 4.72 79.66 2.93 67.92.83 59.37 6 53.65 16.16" style="fill:#aac7d5"/><path class="cls-1" d="M63.24 29.81h-.36a24 24 0 0 0-47 .87h-.87a14.09 14.09 0 0 0-5.53 1.59 14.8 14.8 0 0 0-2.36 1.63A14.21 14.21 0 0 0 6 35a10 10 0 0 0-2.06 2.49 13.49 13.49 0 0 0-1.13 2.4C.19 47.79 3.92 53.75 8.14 56.6c4.38 2.95 11.5 4 17.86-1.57a24 24 0 0 0 27 0 14.67 14.67 0 1 0 10.24-25.22Z"/><path class="cls-3" d="M76.77 49.53a1.32 1.32 0 0 1 .77-.46A24.92 24.92 0 0 0 88.68 45c6.44 4.75 11.95 5.4 17.45 2.13 4.78-2.85 7.7-8.5 6.76-13.85-1.38-8-6.52-12-14.43-12.57-2.64-9.88-8.67-16.45-18.71-18.25C68 .36 59.45 5.51 53.73 15.7"/><path class="cls-3" d="M63.32 29.35H63a24 24 0 0 0-47 .87h-.87a13.89 13.89 0 0 0-5.53 1.6 14.38 14.38 0 0 0-2.4 1.61c-.4.33-.79.67-1.17 1A10.11 10.11 0 0 0 4 37a13.24 13.24 0 0 0-1.13 2.39C.28 47.32 4 53.28 8.23 56.13s11.5 4 17.85-1.57a24 24 0 0 0 27 0 14.67 14.67 0 1 0 10.24-25.21Z"/><path d="M65.57 66.74v6.27m-25.83-6.27v6.27m-25.83-6.27v6.27m37.7 5.61v6.26m-25.83-6.26v6.26" style="stroke-linecap:round;stroke:#000;stroke-width:4px;fill:none;stroke-miterlimit:10"/><path d="M99.4 73c-.22-.51-.45-1-.68-1.55v-1.6c.22-.49.42-1 .62-1.43a.82.82 0 0 0-.52-1.27l-1.45-.57-1.13-1.08c-.22-.57-.42-1.09-.63-1.61a.78.78 0 0 0-1.09-.44c-.28.11-.56.24-.84.36l-.72.32h-1.57c-.42-.18-.83-.33-1.21-.53-.87-.43-1.31-.22-1.59.66-.13.41-.31.8-.48 1.23L87 66.61l-1.54.61a.79.79 0 0 0-.46 1.14l.57 1.3c0 .07 0 .14.08.22v1.58c-.24.54-.46 1.05-.68 1.57a.78.78 0 0 0 .46 1.08l.84.33.78.31 1.07 1.08c.2.51.39 1 .57 1.45a.84.84 0 0 0 1.31.53l1.4-.61H93l.8.34.74.32a.79.79 0 0 0 1.15-.48c.18-.45.35-.89.52-1.33 0-.06 0-.11.1-.23l1.08-1.09 1.3-.51.32-.13A.78.78 0 0 0 99.4 73Z" style="stroke-width:2px;stroke:#000;fill:none;stroke-miterlimit:10"/><path style="stroke:#231f20;stroke-width:2px;fill:none;stroke-miterlimit:10" d="M92.14 53.43v35"/><path d="M92.14 52.77v35.66m-3.32-33.74 3.29 1.93 3.38-2.09m0 32.23-3.3-1.93-3.37 2.09M79.54 58l25.21 25.21m-26.2-21.5 3.69-.97.92-3.86m22.78 22.78-3.69.97-.92 3.86m3.6-26.51L79.72 83.2m21.5-26.21.97 3.69 3.86.92M83.27 84.38l-.97-3.69-3.86-.91m31.76-9.1H74.54m33.74-3.33-1.93 3.3 2.09 3.37m-32.23 0 1.93-3.29-2.09-3.38" style="stroke-width:2px;stroke:#231f20;stroke-linecap:round;fill:none;stroke-miterlimit:10"/></g></g></svg>