<svg xmlns="http://www.w3.org/2000/svg" viewBox="0 0 117.22 91.81"><defs><style>.cls-1{fill:#cae3f6}.cls-4,.cls-5,.cls-6,.cls-7{fill:none;stroke-miterlimit:10}.cls-4,.cls-7{stroke:#000}.cls-5,.cls-6{stroke:#231f20}.cls-6{stroke-linecap:round}.cls-7{stroke-width:4px}</style></defs><g id="Layer_2" data-name="Layer 2"><g id="Layer_1-2" data-name="Layer 1"><path class="cls-1" d="m47.73 80.85-.46-1v-1.11q.21-.49.42-1a.55.55 0 0 0-.36-.85l-1-.39-.75-.73-.43-1.09a.53.53 0 0 0-.73-.29c-.19.07-.38.16-.56.24l-.49.22h-1.03c-.28-.13-.55-.23-.81-.36-.58-.29-.88-.15-1.07.44-.09.28-.21.54-.32.83l-.75.75-1 .41a.54.54 0 0 0-.32.77l.39.88a1.09 1.09 0 0 1 0 .14v1.06c-.15.37-.31.71-.45 1.06a.51.51 0 0 0 .3.72l.57.23.53.2.71.73c.14.34.27.66.39 1s.43.55.88.35l.94-.41h1l.54.23.5.21a.53.53 0 0 0 .77-.32l.35-.9.06-.15.73-.73.88-.35.21-.08a.53.53 0 0 0 .36-.71Zm23.12-6.6c-.1-.25-.22-.5-.33-.77v-.79l.3-.7c.14-.32.06-.51-.26-.63l-.71-.28-.56-.54-.31-.8a.39.39 0 0 0-.54-.22l-.44.18-.36.16h-.78c-.2-.09-.4-.16-.59-.26-.43-.22-.65-.11-.79.33-.06.2-.15.39-.23.6l-.56.56-.76.3a.39.39 0 0 0-.23.56l.28.64a.49.49 0 0 1 0 .11v.78l-.34.78a.38.38 0 0 0 .23.53l.42.17.38.15.53.53.28.72c.13.33.32.4.65.26l.69-.3h.77l.4.17.36.16a.39.39 0 0 0 .65-.25c.09-.22.17-.44.26-.65a.78.78 0 0 1 0-.12l.53-.53.65-.26.15-.06a.38.38 0 0 0 .26-.53Zm19.43-6.71L90 67v-.58l.22-.52c.1-.23 0-.36-.19-.45l-.52-.21-.4-.4c-.08-.2-.15-.39-.23-.57a.28.28 0 0 0-.39-.16l-.3.13-.26.11h-.57l-.36-.2c-.31-.16-.47-.08-.57.24 0 .15-.11.29-.17.44l-.41.41-.55.22a.28.28 0 0 0-.17.41c.07.15.14.31.2.47s0 0 0 .08V67l-.25.57a.29.29 0 0 0 .17.39l.3.12.28.11.39.39.21.52c.09.24.23.3.47.19l.5-.22h.6l.29.12.26.12a.29.29 0 0 0 .42-.18l.18-.47v-.09l.39-.39L90 68h.11a.29.29 0 0 0 .17-.46Z"/><path d="M18.58 30.75a19.61 19.61 0 0 1-1.65-11 24.17 24.17 0 0 1 6.36-12.4 34 34 0 0 1 2.84-2.75 15.87 15.87 0 0 0-4.08-1.44A16.56 16.56 0 0 0 6.2 30.38a16.23 16.23 0 0 0 5.51 4.05" style="fill:#f5b952"/><path d="M78.5 52.09a1.23 1.23 0 0 1 .77-.46 24.82 24.82 0 0 0 11.14-4.11c6.44 4.76 12 5.41 17.45 2.13 4.78-2.85 7.7-8.49 6.76-13.84-1.38-8-6.52-12-14.43-12.58C97.55 13.39 91.52 6.82 81.48 5c-11.75-2.1-20.3 3.05-26 13.23" style="fill:#aac7d5"/><path class="cls-1" d="M65.05 31.9h-.35a24 24 0 0 0-47 .87h-.87a14 14 0 0 0-5.53 1.59A14.44 14.44 0 0 0 8.93 36a14.21 14.21 0 0 0-1.17 1 10.11 10.11 0 0 0-2.06 2.5 13.24 13.24 0 0 0-1.13 2.39C2 49.88 5.73 55.84 10 58.69s11.5 4 17.85-1.57a24 24 0 0 0 27 0 14.67 14.67 0 1 0 10.2-25.22Z"/><path class="cls-4" d="m47.73 80.94-.46-1v-1.12c.14-.33.28-.64.42-1a.55.55 0 0 0-.36-.85l-1-.38-.75-.74-.43-1.08a.53.53 0 0 0-.73-.3l-.56.24-.46.29h-1.06c-.28-.12-.55-.22-.81-.35-.58-.3-.88-.16-1.07.44-.09.27-.21.53-.32.82l-.75.76-1 .41a.53.53 0 0 0-.32.76l.39.88a1.31 1.31 0 0 1 0 .15v1.03c-.15.36-.31.7-.45 1a.53.53 0 0 0 .3.73l.57.22.53.21.71.73c.14.34.27.65.39 1s.43.55.88.36l.94-.42h1l.54.23.5.21a.52.52 0 0 0 .77-.32c.12-.3.23-.6.35-.89a1.14 1.14 0 0 1 .06-.15l.73-.74.88-.35.21-.08a.52.52 0 0 0 .36-.7Z"/><path class="cls-5" d="M42.85 67.77v23.54"/><path class="cls-6" d="M42.85 67.33v23.98m-2.23-22.69 2.21 1.3 2.27-1.4m0 21.66-2.22-1.29-2.26 1.4m-6.24-19.45L51.33 87.8M33.71 73.34l2.48-.65.62-2.6m15.32 15.32-2.48.66-.62 2.59m2.42-17.83L34.5 87.79m14.45-17.62.66 2.48 2.59.62M36.88 88.59l-.65-2.49-2.6-.61m21.36-6.12H31.02m22.68-2.24-1.29 2.22 1.4 2.27m-21.67 0 1.29-2.22-1.4-2.27"/><path class="cls-4" d="M70.85 74.33c-.1-.25-.22-.5-.33-.76v-.79c.1-.25.2-.48.3-.71s.06-.5-.26-.63l-.71-.28-.56-.54-.29-.79a.38.38 0 0 0-.54-.22c-.14 0-.27.12-.41.18l-.36.15h-.78c-.2-.09-.4-.16-.59-.26-.43-.21-.65-.11-.79.33-.06.2-.15.39-.23.61l-.56.55-.76.3a.39.39 0 0 0-.23.56c.09.22.19.43.28.65a.28.28 0 0 1 0 .11v.77l-.34.78a.38.38 0 0 0 .23.53l.42.17.38.15.53.54.28.71c.13.33.32.41.65.26l.69-.3h.77l.4.17.36.15a.39.39 0 0 0 .57-.23l.26-.66v-.11l.53-.54.65-.26.15-.06a.38.38 0 0 0 .29-.53Z"/><path class="cls-5" d="M67.27 64.65v17.3"/><path class="cls-6" d="M67.27 64.33v17.62m-1.64-16.67 1.62.95 1.67-1.03m0 15.93-1.63-.96-1.66 1.03m-4.59-14.29L73.5 79.37M60.55 68.75l1.83-.48.45-1.91m11.26 11.26-1.83.48-.45 1.91m1.78-13.11L61.13 79.37m10.62-12.95.48 1.82 1.91.45M62.88 79.95l-.48-1.82-1.91-.45m15.7-4.5H58.57m16.67-1.65-.95 1.63 1.03 1.67m-15.92 0 .95-1.63-1.03-1.67"/><path class="cls-4" d="M90.28 67.63c-.08-.19-.16-.37-.25-.56v-.58l.22-.51a.3.3 0 0 0-.19-.46l-.52-.21-.4-.39c-.08-.21-.15-.39-.23-.58a.28.28 0 0 0-.39-.16l-.3.13-.26.12h-.57l-.39-.19c-.31-.16-.47-.09-.57.23 0 .15-.11.29-.17.45l-.41.4-.55.22a.28.28 0 0 0-.17.41c.07.16.14.31.2.47s0 0 0 .08v.57c-.09.19-.17.38-.25.56a.29.29 0 0 0 .17.39l.3.12.28.11.39.39c.07.19.14.36.21.53s.23.29.47.19l.5-.22h.6l.29.13.26.11a.29.29 0 0 0 .42-.17l.18-.48v-.08l.39-.4.47-.18h.11a.28.28 0 0 0 .16-.44Z"/><path class="cls-5" d="M87.66 60.57v12.62"/><path class="cls-6" d="M87.66 60.33v12.86m-1.2-12.17 1.19.7 1.22-.75m0 11.61-1.19-.69-1.22.75m-3.34-10.43 9.09 9.1m-9.45-7.76 1.33-.35.33-1.39m8.22 8.22-1.34.35-.33 1.39m1.3-9.56-9.09 9.09m7.75-9.45.35 1.33 1.4.33m-8.22 8.22-.35-1.33-1.39-.33m11.45-3.29H81.31m12.17-1.19-.7 1.19.75 1.21m-11.61 0 .69-1.19-.75-1.21"/><path class="cls-7" d="M18.58 30a19.63 19.63 0 0 1-1.65-11.06 24.21 24.21 0 0 1 6.36-12.38 32.14 32.14 0 0 1 2.84-2.74 16.28 16.28 0 0 0-4.08-1.45A16.57 16.57 0 0 0 6.2 29.6a16.23 16.23 0 0 0 5.51 4m67.22 17.71a1.29 1.29 0 0 1 .77-.47 24.84 24.84 0 0 0 11.13-4.1c6.44 4.75 12 5.41 17.45 2.13C113.06 46 116 40.38 115.05 35c-1.39-8-6.53-12-14.43-12.58C98 12.61 91.94 6 81.9 4.24c-11.74-2.1-20.29 3.05-26 13.23"/><path class="cls-7" d="M65.48 31.12h-.36a24 24 0 0 0-47 .87h-.87a14.06 14.06 0 0 0-5.52 1.6 14.44 14.44 0 0 0-2.36 1.57 14.06 14.06 0 0 0-1.17 1 9.89 9.89 0 0 0-2.06 2.5A13.24 13.24 0 0 0 5 41.14c-2.57 8 1.16 13.91 5.38 16.76 4.38 3 11.5 4 17.86-1.56a24 24 0 0 0 27-.05 14.67 14.67 0 1 0 10.24-25.17Z"/></g></g></svg>