<svg xmlns="http://www.w3.org/2000/svg" viewBox="0 0 115.87 60.7"><defs><style>.cls-3{fill:none;stroke:#000;stroke-miterlimit:10;stroke-width:4px}</style></defs><g id="Layer_2" data-name="Layer 2"><g id="Layer_1-2" data-name="Layer 1"><path d="M76.34 49.3a1.25 1.25 0 0 1 .78-.46 25 25 0 0 0 11.13-4.11c6.44 4.75 12 5.41 17.45 2.13 4.78-2.85 7.71-8.49 6.77-13.84-1.39-8-6.53-12-14.43-12.58C95.4 10.6 89.36 4 79.32 2.23 67.58.13 59 5.28 53.31 15.46" style="fill:#aac7d5"/><path d="M62.9 29.11h-.36a24 24 0 0 0-47 .87h-.87a14.27 14.27 0 0 0-5.53 1.6 14.8 14.8 0 0 0-2.36 1.62 14.06 14.06 0 0 0-1.17 1 9.85 9.85 0 0 0-2.06 2.5 13.13 13.13 0 0 0-1.13 2.4C-.15 47.09 3.58 53 7.8 55.89c4.37 3 11.5 4 17.85-1.56a24 24 0 0 0 27 0A14.67 14.67 0 1 0 62.9 29.11Z" style="fill:#cae3f6"/><path class="cls-3" d="M76.77 49.53a1.32 1.32 0 0 1 .77-.46A24.92 24.92 0 0 0 88.68 45c6.44 4.75 11.95 5.4 17.45 2.13 4.78-2.85 7.7-8.5 6.76-13.85-1.38-8-6.52-12-14.43-12.57-2.64-9.88-8.67-16.45-18.71-18.25C68 .36 59.45 5.51 53.73 15.7"/><path class="cls-3" d="M63.32 29.35H63a24 24 0 0 0-47 .87h-.87a13.89 13.89 0 0 0-5.53 1.6 14.38 14.38 0 0 0-2.4 1.61c-.4.33-.79.67-1.17 1A10.11 10.11 0 0 0 4 37a13.24 13.24 0 0 0-1.13 2.39C.28 47.32 4 53.28 8.23 56.13s11.5 4 17.85-1.57a24 24 0 0 0 27 0 14.67 14.67 0 1 0 10.24-25.21Z"/><path d="M103.38 4.86 78.4 22.17m1.01-8.69-1.46 8.92 8.58.9m27.84-7.02L89.39 33.59m1.01-8.69-1.47 8.92 8.58.9" style="stroke-linecap:round;stroke-width:3px;fill:none;stroke:#000;stroke-miterlimit:10"/></g></g></svg>