<svg xmlns="http://www.w3.org/2000/svg" viewBox="0 0 121.88 88"><defs><style>.cls-4{fill:none;stroke:#000;stroke-miterlimit:10;stroke-width:4px}</style></defs><g id="Layer_2" data-name="Layer 2"><g id="Layer_1-2" data-name="Layer 1"><path d="M21.39 1.91A20.1 20.1 0 1 0 41.49 22a20.13 20.13 0 0 0-20.1-20.09Z" style="fill:#f5b952"/><path d="M83.64 52.15a1.35 1.35 0 0 1 .77-.46 24.92 24.92 0 0 0 11.14-4.1c6.44 4.75 12 5.4 17.45 2.13 4.78-2.85 7.71-8.5 6.77-13.85-1.39-8-6.53-12-14.44-12.58-2.64-9.84-8.67-16.41-18.71-18.21C74.88 3 66.33 8.13 60.61 18.32" style="fill:#aac7d5"/><path d="M70.2 32h-.36a24 24 0 0 0-47 .87h-.87a13.94 13.94 0 0 0-5.53 1.6 14.74 14.74 0 0 0-2.35 1.56c-.4.33-.79.67-1.17 1.05a9.69 9.69 0 0 0-2.06 2.5A13.77 13.77 0 0 0 9.71 42c-2.56 7.94 1.16 13.9 5.39 16.75s11.5 4 17.85-1.57a24 24 0 0 0 27 0A14.67 14.67 0 1 0 70.2 32Z" style="fill:#cae3f6"/><path class="cls-4" d="M39.79 13.71a19.75 19.75 0 1 0-28.58 24.73m72.37 13.22a1.27 1.27 0 0 1 .78-.46 25 25 0 0 0 11.13-4.11c6.44 4.75 12 5.41 17.45 2.13 4.78-2.85 7.71-8.49 6.77-13.84-1.39-8-6.53-12-14.43-12.58C102.64 13 96.6 6.38 86.56 4.59c-11.74-2.1-20.29 3.05-26 13.23"/><path class="cls-4" d="M70.14 31.47h-.36a24 24 0 0 0-47 .87h-.87A14.27 14.27 0 0 0 16.37 34 14.8 14.8 0 0 0 14 35.56a14.06 14.06 0 0 0-1.17 1 10.07 10.07 0 0 0-2.06 2.5 13.13 13.13 0 0 0-1.13 2.4c-2.57 8 1.16 13.9 5.38 16.75 4.38 3 11.5 4 17.86-1.56a24 24 0 0 0 27 0 14.67 14.67 0 1 0 10.26-25.18Z"/><path d="M93.59 67.86v6.27m-25.83-6.27v6.27m-25.82-6.27v6.27m37.7 5.6V86m-25.83-6.27V86" style="stroke-linecap:round;fill:none;stroke:#000;stroke-miterlimit:10;stroke-width:4px"/></g></g></svg>