<svg xmlns="http://www.w3.org/2000/svg" viewBox="0 0 121.88 91.12"><defs><style>.cls-1{fill:#cae3f6}.cls-4{fill:none;stroke-miterlimit:10;stroke:#000;stroke-width:4px}</style></defs><g id="Layer_2" data-name="Layer 2"><g id="Layer_1-2" data-name="Layer 1"><path class="cls-1" d="M106.21 74.75c-.21-.51-.44-1-.68-1.54V71.6c.21-.49.41-1 .62-1.42a.82.82 0 0 0-.53-1.27l-1.45-.57-1.11-1.1c-.23-.56-.43-1.09-.64-1.61a.79.79 0 0 0-1.09-.44l-.83.37-.73.32H98.2c-.42-.18-.82-.33-1.2-.52-.87-.44-1.31-.23-1.6.65-.13.41-.3.8-.47 1.23l-1.12 1.12-1.54.64a.79.79 0 0 0-.48 1.13c.19.44.39.87.58 1.31a1.77 1.77 0 0 1 .08.22v1.54c-.23.54-.46 1-.67 1.57a.77.77 0 0 0 .45 1.08c.28.12.56.22.84.33l.79.31 1.06 1.08c.2.51.39 1 .58 1.45.26.67.64.82 1.3.53l1.41-.61h1.55l.81.35.74.31a.79.79 0 0 0 1.15-.48l.51-1.33.1-.22 1.09-1.09 1.3-.52.31-.12a.78.78 0 0 0 .44-1.09Z"/><path d="M22.48 2.35a20.1 20.1 0 1 0 20.1 20.1 20.13 20.13 0 0 0-20.1-20.1Z" style="fill:#f5b952"/><path d="M83.5 52.25a1.32 1.32 0 0 1 .77-.46 24.92 24.92 0 0 0 11.14-4.1c6.44 4.75 12 5.4 17.45 2.13 4.78-2.85 7.7-8.5 6.76-13.85-1.38-8-6.52-12-14.43-12.57-2.64-9.85-8.67-16.4-18.71-18.22-11.75-2.1-20.3 3.05-26 13.24" style="fill:#aac7d5"/><path class="cls-1" d="M70.05 32.07h-.35a24 24 0 0 0-47 .87h-.87a13.89 13.89 0 0 0-5.53 1.6 14.38 14.38 0 0 0-2.36 1.56c-.4.33-.79.67-1.17 1.05a10.11 10.11 0 0 0-2.06 2.5 13.24 13.24 0 0 0-1.13 2.39C7 50 10.73 56 15 58.85s11.5 4 17.85-1.57a24 24 0 0 0 27 0 14.67 14.67 0 1 0 10.2-25.21Z"/><path class="cls-4" d="M39.79 13.71a19.75 19.75 0 1 0-28.58 24.73m72.37 13.22a1.27 1.27 0 0 1 .78-.46 25 25 0 0 0 11.13-4.11c6.44 4.75 12 5.41 17.45 2.13 4.78-2.85 7.71-8.49 6.77-13.84-1.39-8-6.53-12-14.43-12.58C102.64 13 96.6 6.38 86.56 4.59c-11.74-2.1-20.29 3.05-26 13.23"/><path class="cls-4" d="M70.14 31.47h-.36a24 24 0 0 0-47 .87h-.87A14.27 14.27 0 0 0 16.37 34 14.8 14.8 0 0 0 14 35.56a14.06 14.06 0 0 0-1.17 1 10.07 10.07 0 0 0-2.06 2.5 13.13 13.13 0 0 0-1.13 2.4c-2.57 8 1.16 13.9 5.38 16.75 4.38 3 11.5 4 17.86-1.56a24 24 0 0 0 27 0 14.67 14.67 0 1 0 10.26-25.18Z"/><path d="M72.38 68.44v6.27m-25.83-6.27v6.27m-25.83-6.27v6.27m37.71 5.6v6.27M32.6 80.31v6.27" style="stroke-linecap:round;stroke:#000;stroke-width:4px;fill:none;stroke-miterlimit:10"/><path d="M106.21 74.7c-.21-.5-.44-1-.68-1.54v-1.6c.21-.5.41-1 .62-1.43a.82.82 0 0 0-.53-1.27l-1.45-.57-1.11-1.09-.64-1.61a.79.79 0 0 0-1.09-.45l-.83.37-.73.32H98.2c-.42-.18-.82-.34-1.2-.53-.87-.44-1.31-.23-1.6.66-.13.4-.3.8-.47 1.23l-1.12 1.12-1.54.61a.79.79 0 0 0-.48 1.13c.19.44.39.87.58 1.31a1.77 1.77 0 0 1 .08.22v1.57c-.23.55-.46 1.06-.67 1.57a.77.77 0 0 0 .45 1.08l.84.34.79.3 1.06 1.09.59 1.47c.26.67.64.82 1.3.53l1.41-.61h1.55l.81.34.74.32a.8.8 0 0 0 1.15-.49l.51-1.33.1-.22 1.09-1.09 1.3-.52c.1 0 .21-.07.31-.12a.78.78 0 0 0 .43-1.11Z" style="stroke-width:2px;stroke:#000;fill:none;stroke-miterlimit:10"/><path style="stroke:#231f20;stroke-width:2px;fill:none;stroke-miterlimit:10" d="M98.96 55.12v35"/><path d="M98.96 54.46v35.66m-3.33-33.73 3.3 1.92 3.38-2.08m0 32.22-3.3-1.92-3.38 2.08m-9.28-28.92 25.22 25.22m-26.21-21.5 3.7-.97.91-3.86m22.78 22.78-3.69.97-.91 3.86m3.6-26.51L86.53 84.89m21.51-26.2.97 3.69 3.86.91M90.08 86.08l-.97-3.69-3.86-.92m31.77-9.1H81.36m33.73-3.32-1.92 3.29 2.08 3.38m-32.22 0 1.92-3.3-2.08-3.37" style="stroke-width:2px;stroke:#231f20;stroke-linecap:round;fill:none;stroke-miterlimit:10"/></g></g></svg>