<svg xmlns="http://www.w3.org/2000/svg" viewBox="0 0 115.07 86.92"><defs><style>.cls-1{fill:#cae3f6}.cls-3{fill:none;stroke:#000;stroke-miterlimit:10;stroke-width:4px}</style></defs><g id="Layer_2" data-name="Layer 2"><g id="Layer_1-2" data-name="Layer 1"><path class="cls-1" d="m46.69 73-3.64-1h-.26q.52-1.89 1.05-3.75c.33-1.16.66-2.31 1-3.47a1 1 0 0 0-.23-1 .86.86 0 0 0-1-.23 1.55 1.55 0 0 0-.58.43q-3.12 3.94-6.22 7.91s0 0-.05 0l-1.42 1.81c-.26.33-.55.69-.83 1.06a1 1 0 0 0 .57 1.76l3.5 1c.21.05.28.14.26.37-.1 1-.18 2-.26 3s-.15 1.78-.2 2.67a1 1 0 0 0 .93 1 1.12 1.12 0 0 0 .93-.54c1.69-2.27 3.39-4.53 5.08-6.79l.09-.12L47.09 75c.07-.1.13-.2.2-.29a1 1 0 0 0-.6-1.71Z"/><path d="M76.34 50a1.34 1.34 0 0 1 .78-.46 24.88 24.88 0 0 0 11.13-4.1c6.44 4.75 12 5.4 17.45 2.13 4.78-2.85 7.71-8.5 6.77-13.85-1.39-8-6.53-12-14.43-12.58C95.4 11.32 89.36 4.75 79.32 3 67.58.85 59 6 53.31 16.19" style="fill:#aac7d5"/><path class="cls-1" d="M62.9 29.84h-.36a24 24 0 0 0-47 .87h-.87a13.94 13.94 0 0 0-5.53 1.6 14.74 14.74 0 0 0-2.35 1.56c-.4.33-.79.67-1.17 1a9.69 9.69 0 0 0-2.06 2.5 13.24 13.24 0 0 0-1.13 2.39c-2.57 8 1.16 13.91 5.38 16.76 4.37 3 11.5 4 17.85-1.57a24 24 0 0 0 27 0A14.67 14.67 0 1 0 62.9 29.84Z"/><path class="cls-3" d="M76.77 49.53a1.32 1.32 0 0 1 .77-.46A24.92 24.92 0 0 0 88.68 45c6.44 4.75 11.95 5.4 17.45 2.13 4.78-2.85 7.7-8.5 6.76-13.85-1.38-8-6.52-12-14.43-12.57-2.64-9.88-8.67-16.45-18.71-18.25C68 .36 59.45 5.51 53.73 15.7"/><path class="cls-3" d="M63.32 29.35H63a24 24 0 0 0-47 .87h-.87a13.89 13.89 0 0 0-5.53 1.6 14.38 14.38 0 0 0-2.4 1.61c-.4.33-.79.67-1.17 1A10.11 10.11 0 0 0 4 37a13.24 13.24 0 0 0-1.13 2.39C.28 47.32 4 53.28 8.23 56.13s11.5 4 17.85-1.57a24 24 0 0 0 27 0 14.67 14.67 0 1 0 10.24-25.21Z"/><path d="M85.91 64.74v6.97m-25.83-6.97v6.97m11.87 6.24v6.97" style="stroke-linecap:round;fill:none;stroke:#000;stroke-miterlimit:10;stroke-width:4px"/><path d="m46.69 73-3.64-1h-.26q.52-1.89 1.05-3.75c.33-1.16.66-2.31 1-3.47a1 1 0 0 0-.23-1 .86.86 0 0 0-1-.23 1.55 1.55 0 0 0-.58.43q-3.12 3.94-6.22 7.91s0 0-.05 0l-1.42 1.81c-.26.33-.55.69-.83 1.06a1 1 0 0 0 .57 1.76l3.5 1c.21.05.28.14.26.37-.1 1-.18 2-.26 3s-.15 1.78-.2 2.67a1 1 0 0 0 .93 1 1.12 1.12 0 0 0 .93-.54c1.69-2.27 3.39-4.53 5.08-6.79l.09-.12L47.09 75c.07-.1.13-.2.2-.29a1 1 0 0 0-.6-1.71Z" style="stroke-width:3px;fill:none;stroke:#000;stroke-miterlimit:10"/></g></g></svg>