<svg xmlns="http://www.w3.org/2000/svg" viewBox="0 0 117.22 88.1"><defs><style>.cls-4{fill:none;stroke:#000;stroke-miterlimit:10;stroke-width:4px}</style></defs><g id="Layer_2" data-name="Layer 2"><g id="Layer_1-2" data-name="Layer 1"><path d="M18.58 30.38a19.63 19.63 0 0 1-1.65-11.06A24.25 24.25 0 0 1 23.29 7a33.66 33.66 0 0 1 2.84-2.74 16.28 16.28 0 0 0-4.08-1.45A16.57 16.57 0 0 0 6.2 30a16.23 16.23 0 0 0 5.51 4.05" style="fill:#f5b952"/><path d="M78.84 51.19a1.25 1.25 0 0 1 .77-.46 25.05 25.05 0 0 0 11.14-4.11c6.44 4.75 12 5.41 17.45 2.13 4.78-2.85 7.7-8.49 6.76-13.84-1.38-8-6.52-12-14.43-12.58-2.64-9.84-8.67-16.42-18.71-18.21C70.07 2 61.52 7.17 55.8 17.35" style="fill:#aac7d5"/><path d="M65.39 31H65a24 24 0 0 0-47 .87h-.87a14.22 14.22 0 0 0-5.53 1.6 14.44 14.44 0 0 0-2.36 1.57 14 14 0 0 0-1.16 1A10.12 10.12 0 0 0 6 38.63 13.13 13.13 0 0 0 4.91 41c-2.56 8 1.16 13.93 5.39 16.78s11.5 4 17.85-1.56a24 24 0 0 0 27 0A14.67 14.67 0 1 0 65.39 31Z" style="fill:#cae3f6"/><path class="cls-4" d="M18.58 30a19.63 19.63 0 0 1-1.65-11.06 24.21 24.21 0 0 1 6.36-12.38 32.14 32.14 0 0 1 2.84-2.74 16.28 16.28 0 0 0-4.08-1.45A16.57 16.57 0 0 0 6.2 29.6a16.23 16.23 0 0 0 5.51 4m67.22 17.71a1.29 1.29 0 0 1 .77-.47 24.84 24.84 0 0 0 11.13-4.1c6.44 4.75 12 5.41 17.45 2.13C113.06 46 116 40.38 115.05 35c-1.39-8-6.53-12-14.43-12.58C98 12.61 91.94 6 81.9 4.24c-11.74-2.1-20.29 3.05-26 13.23"/><path class="cls-4" d="M65.48 31.12h-.36a24 24 0 0 0-47 .87h-.87a14.06 14.06 0 0 0-5.52 1.6 14.44 14.44 0 0 0-2.36 1.57 14.06 14.06 0 0 0-1.17 1 9.89 9.89 0 0 0-2.06 2.5A13.24 13.24 0 0 0 5 41.14c-2.57 8 1.16 13.91 5.38 16.76 4.38 3 11.5 4 17.86-1.56a24 24 0 0 0 27-.05 14.67 14.67 0 1 0 10.24-25.17Z"/><path d="M92.11 67.95v6.27m-25.83-6.27v6.27m-25.83-6.27v6.27m37.71 5.61v6.27m-25.83-6.27v6.27" style="stroke-linecap:round;fill:none;stroke:#000;stroke-miterlimit:10;stroke-width:4px"/></g></g></svg>