<svg xmlns="http://www.w3.org/2000/svg" viewBox="0 0 115.07 73.01"><defs><style>.cls-3{fill:none;stroke:#000;stroke-miterlimit:10;stroke-width:4px}</style></defs><g id="Layer_2" data-name="Layer 2"><g id="Layer_1-2" data-name="Layer 1"><path d="M76.77 49.06a1.32 1.32 0 0 1 .77-.46 24.92 24.92 0 0 0 11.14-4.1c6.44 4.75 11.95 5.4 17.45 2.13 4.78-2.85 7.7-8.5 6.76-13.85-1.38-8-6.52-12-14.43-12.57C95.82 10.36 89.79 3.79 79.75 2 68-.11 59.45 5 53.73 15.23" style="fill:#aac7d5"/><path d="M63.32 28.88H63a24 24 0 0 0-47 .87h-.87a13.89 13.89 0 0 0-5.53 1.6A14.38 14.38 0 0 0 7.2 33c-.4.33-.79.67-1.17 1A10.11 10.11 0 0 0 4 36.51a13.24 13.24 0 0 0-1.16 2.39C.28 46.85 4 52.81 8.23 55.66s11.5 4 17.85-1.57a24 24 0 0 0 27 0 14.67 14.67 0 1 0 10.24-25.21Z" style="fill:#cae3f6"/><path class="cls-3" d="M76.77 49.53a1.32 1.32 0 0 1 .77-.46A24.92 24.92 0 0 0 88.68 45c6.44 4.75 11.95 5.4 17.45 2.13 4.78-2.85 7.7-8.5 6.76-13.85-1.38-8-6.52-12-14.43-12.57-2.64-9.88-8.67-16.45-18.71-18.25C68 .36 59.45 5.51 53.73 15.7"/><path class="cls-3" d="M63.32 29.35H63a24 24 0 0 0-47 .87h-.87a13.89 13.89 0 0 0-5.53 1.6 14.38 14.38 0 0 0-2.4 1.61c-.4.33-.79.67-1.17 1A10.11 10.11 0 0 0 4 37a13.24 13.24 0 0 0-1.13 2.39C.28 47.32 4 53.28 8.23 56.13s11.5 4 17.85-1.57a24 24 0 0 0 27 0 14.67 14.67 0 1 0 10.24-25.21Z"/><path d="M85.91 64.74v6.27m-25.83-6.27v6.27m-25.83-6.27v6.27" style="stroke-linecap:round;fill:none;stroke:#000;stroke-miterlimit:10;stroke-width:4px"/></g></g></svg>