<svg xmlns="http://www.w3.org/2000/svg" viewBox="0 0 121.88 91.8"><defs><style>.cls-1{fill:#cae3f6}.cls-4,.cls-5,.cls-6,.cls-7{fill:none;stroke-miterlimit:10}.cls-4,.cls-7{stroke:#000}.cls-5,.cls-6{stroke:#231f20}.cls-6{stroke-linecap:round}.cls-7{stroke-width:4px}</style></defs><g id="Layer_2" data-name="Layer 2"><g id="Layer_1-2" data-name="Layer 1"><path class="cls-1" d="M52.39 80.84c-.15-.35-.3-.68-.46-1v-1.12l.41-1a.54.54 0 0 0-.35-.85l-1-.39-.75-.73c-.15-.38-.29-.74-.43-1.08a.53.53 0 0 0-.73-.3l-.56.24-.49.22H47c-.28-.12-.55-.23-.81-.36-.58-.29-.88-.15-1.07.45-.09.27-.21.53-.32.82l-.75.75L43 77a.53.53 0 0 0-.32.76l.39.88s0 .09.05.14v1.06c-.15.37-.31.71-.45 1.06a.53.53 0 0 0 .3.73l.57.22.53.2.71.73c.14.34.26.66.39 1s.43.55.88.35l.94-.41h1.05l.54.23.5.21a.53.53 0 0 0 .77-.32l.35-.9.06-.15L51 82l.88-.35.21-.08a.52.52 0 0 0 .3-.73Zm23.12-6.61c-.1-.25-.22-.5-.33-.76v-.8l.31-.7c.14-.32.06-.51-.26-.63l-.72-.28-.51-.54-.31-.8a.4.4 0 0 0-.54-.22l-.41.18-.36.16h-.78c-.2-.09-.4-.16-.59-.26-.43-.21-.65-.11-.79.33-.06.2-.15.39-.23.6l-.56.56-.76.3a.39.39 0 0 0-.23.56c.09.22.19.43.28.65a.69.69 0 0 0 0 .1v.78l-.34.78a.38.38 0 0 0 .23.53l.41.17.39.15.53.53.28.72c.13.33.32.4.65.26l.69-.3h.77l.4.17.36.15a.39.39 0 0 0 .57-.24c.09-.21.17-.43.26-.65a.48.48 0 0 1 0-.11l.53-.54.64-.26.16-.06a.38.38 0 0 0 .26-.53Zm19.43-6.71-.25-.52v-.58l.22-.52c.1-.22 0-.36-.19-.45l-.52-.21-.4-.39-.23-.58a.28.28 0 0 0-.39-.16l-.3.13-.27.11h-.56l-.44-.19c-.31-.15-.47-.08-.57.24-.05.15-.11.29-.17.44l-.41.41-.55.22a.28.28 0 0 0-.17.41l.2.47V67l-.25.57a.28.28 0 0 0 .17.39l.3.12.28.11.39.39.21.52c.09.24.23.3.47.19l.5-.22h.56l.29.13.27.11a.28.28 0 0 0 .41-.17c.07-.16.13-.32.19-.48v-.08l.39-.4.47-.18h.11a.29.29 0 0 0 .24-.48Z"/><path d="M22.48 2.48a20.1 20.1 0 1 0 20.1 20.1 20.13 20.13 0 0 0-20.1-20.1Z" style="fill:#f5b952"/><path d="M83.16 52.76a1.32 1.32 0 0 1 .77-.46 24.92 24.92 0 0 0 11.14-4.1c6.44 4.75 12 5.4 17.45 2.13 4.78-2.85 7.7-8.5 6.76-13.85-1.38-8-6.52-12-14.43-12.57-2.64-9.85-8.67-16.42-18.71-18.22-11.75-2.1-20.3 3.05-26 13.24" style="fill:#aac7d5"/><path class="cls-1" d="M69.71 32.58h-.35a24 24 0 0 0-47 .87h-.86A13.89 13.89 0 0 0 16 35.1a14.38 14.38 0 0 0-2.36 1.56c-.4.33-.79.67-1.17 1.05a10.11 10.11 0 0 0-2.06 2.5 13.24 13.24 0 0 0-1.18 2.39c-2.56 7.95 1.16 13.91 5.39 16.76s11.5 4 17.85-1.57a24 24 0 0 0 27 0 14.67 14.67 0 1 0 10.24-25.21Z"/><path class="cls-4" d="m52.39 80.93-.46-1v-1.12c.14-.33.28-.64.41-1A.55.55 0 0 0 52 77l-1-.38-.75-.74-.43-1.08a.53.53 0 0 0-.73-.3l-.56.25-.49.21H47c-.28-.12-.55-.22-.81-.35-.58-.3-.88-.16-1.07.44-.09.27-.21.54-.32.82l-.75.76L43 77a.53.53 0 0 0-.32.76l.39.88a1.31 1.31 0 0 1 .05.15v1.06c-.15.36-.31.71-.45 1a.53.53 0 0 0 .3.73l.57.22.53.21.71.73.39 1c.18.45.43.55.88.36l.94-.41h1.05l.54.23.5.22a.53.53 0 0 0 .77-.33l.35-.89a1.14 1.14 0 0 1 .06-.15l.73-.74.88-.34.21-.09a.52.52 0 0 0 .31-.67Z"/><path class="cls-5" d="M47.51 67.76V91.3"/><path class="cls-6" d="M47.51 67.32V91.3m-2.24-22.69 2.22 1.3 2.27-1.4m0 21.66-2.22-1.29-2.27 1.4m-6.24-19.44 16.96 16.95M38.37 73.33l2.48-.65.62-2.6m15.32 15.33-2.49.65-.61 2.59m2.42-17.82L39.16 87.78m14.45-17.62.66 2.48 2.59.62M41.54 88.58l-.65-2.48-2.6-.62m21.36-6.12H35.67m22.69-2.23-1.3 2.21 1.41 2.27m-21.67 0 1.29-2.21-1.4-2.27"/><path class="cls-4" d="M75.51 74.32c-.1-.25-.22-.5-.33-.76v-.79l.31-.71a.4.4 0 0 0-.26-.62l-.72-.29-.51-.54-.31-.79a.38.38 0 0 0-.54-.22l-.41.18-.36.16h-.78l-.6-.26c-.43-.22-.65-.12-.79.32-.06.2-.15.39-.23.61l-.56.55-.76.3a.39.39 0 0 0-.23.56c.09.22.19.43.28.65a.76.76 0 0 0 0 .11v.78c-.12.26-.23.52-.34.77a.4.4 0 0 0 .23.54l.4.13.39.15.53.54.28.71a.42.42 0 0 0 .65.27l.69-.31h.77l.4.17.36.16a.39.39 0 0 0 .57-.24l.26-.66v-.11l.53-.54.64-.26a.76.76 0 0 0 .16-.06.38.38 0 0 0 .28-.5Z"/><path class="cls-5" d="M71.93 64.65v17.29"/><path class="cls-6" d="M71.93 64.32v17.62m-1.65-16.67 1.63.95 1.67-1.03m0 15.93-1.63-.95-1.67 1.03M65.7 66.9l12.46 12.47M65.21 68.74l1.82-.48.45-1.91m11.27 11.26-1.83.48-.45 1.91m1.78-13.1L65.79 79.36m10.62-12.95.48 1.82 1.91.45M67.54 79.94l-.48-1.82-1.91-.45m15.7-4.5H63.23m16.67-1.64-.95 1.63 1.03 1.67m-15.93 0L65 73.2l-1.02-1.67"/><path class="cls-4" d="M94.94 67.62c-.08-.19-.16-.37-.25-.56v-.58l.22-.51a.3.3 0 0 0-.19-.46l-.52-.2-.4-.4c-.08-.2-.16-.39-.23-.58a.28.28 0 0 0-.39-.16l-.3.13-.27.12h-.56l-.44-.19c-.31-.16-.47-.09-.57.23-.05.15-.11.29-.17.45l-.41.4-.55.22a.28.28 0 0 0-.17.41c.06.16.13.31.2.47v.65c-.09.19-.17.38-.25.56a.28.28 0 0 0 .17.39c.1 0 .2.08.3.12l.28.11.39.4.21.52c.09.24.23.29.47.19l.5-.22h.56l.29.12.27.11a.28.28 0 0 0 .41-.17c.07-.16.13-.32.19-.48v-.08l.39-.39.47-.19h.11a.3.3 0 0 0 .24-.43Z"/><path class="cls-5" d="M92.32 60.56v12.62"/><path class="cls-6" d="M92.32 60.32v12.86m-1.2-12.17 1.19.7 1.22-.75m0 11.62-1.19-.7-1.22.75m-3.35-10.42 9.1 9.09m-9.45-7.76 1.33-.35.33-1.39m8.21 8.22-1.33.35-.33 1.39m1.3-9.56-9.09 9.09m7.75-9.45.35 1.33 1.39.33m-8.21 8.22-.35-1.33-1.39-.33m11.45-3.28H85.97m12.17-1.2-.7 1.19.75 1.21m-11.61 0 .69-1.18-.75-1.22"/><path class="cls-7" d="M39.79 13.71a19.75 19.75 0 1 0-28.58 24.73m72.37 13.22a1.27 1.27 0 0 1 .78-.46 25 25 0 0 0 11.13-4.11c6.44 4.75 12 5.41 17.45 2.13 4.78-2.85 7.71-8.49 6.77-13.84-1.39-8-6.53-12-14.43-12.58C102.64 13 96.6 6.38 86.56 4.59c-11.74-2.1-20.29 3.05-26 13.23"/><path class="cls-7" d="M70.14 31.47h-.36a24 24 0 0 0-47 .87h-.87A14.27 14.27 0 0 0 16.37 34 14.8 14.8 0 0 0 14 35.56a14.06 14.06 0 0 0-1.17 1 10.07 10.07 0 0 0-2.06 2.5 13.13 13.13 0 0 0-1.13 2.4c-2.57 8 1.16 13.9 5.38 16.75 4.38 3 11.5 4 17.86-1.56a24 24 0 0 0 27 0 14.67 14.67 0 1 0 10.26-25.18Z"/></g></g></svg>